<svg xmlns="http://www.w3.org/2000/svg" width="71.271" height="71.001" viewBox="0 0 71.271 71.001"><g transform="translate(0 -0.864)"><path d="M74.062,50.019,69.38,45.337V32.8a24.584,24.584,0,0,0-19.9-24.13V5.545a4.681,4.681,0,0,0-9.363,0V8.666a24.584,24.584,0,0,0-19.9,24.13V45.337l-4.681,4.681v6.242H10.863v4.681h67.88V56.261H74.062Z" transform="translate(-9.168)" fill="#ca0828"/><path d="M174.98,422.1a10.924,10.924,0,0,0,9.871-6.242H165.109A10.923,10.923,0,0,0,174.98,422.1Z" transform="translate(-139.344 -350.24)" fill="#ca0828"/><path d="M341.41,27.391l4.6-.88a36.393,36.393,0,0,0-18.222-25.02L325.536,5.6A31.537,31.537,0,0,1,341.41,27.391Z" transform="translate(-274.737 -0.529)" fill="#ca0828"/><path d="M20.472,5.6l-2.25-4.105A36.391,36.391,0,0,0,0,26.511l4.6.88A31.537,31.537,0,0,1,20.472,5.6Z" transform="translate(0 -0.529)" fill="#ca0828"/></g></svg>